<?xml version="1.0" encoding="utf-8"?>
<svg xmlns="http://www.w3.org/2000/svg" viewBox="0 0 500 500">
  <path id="path0" d="M 77.776 100.991 C 73.19 102.839 71.747 111.108 74.753 118.305 C 76.128 121.595 76.038 122.748 73.735 131.351 C 69.733 146.306 68.932 147.679 61.497 152.324 C 7.801 185.873 -14.188 224.374 9.431 243.483 C 21.741 253.441 31.334 251.371 61.665 232.215 C 68.126 228.137 75.854 223.566 78.839 222.063 C 81.824 220.558 87.472 217.262 91.387 214.737 C 101.365 208.307 104.515 208.819 117.863 219.044 C 128.879 227.48 139.11 232.107 150.342 233.731 C 155.046 234.413 155.404 234.324 154.131 232.789 C 152.931 231.344 152.965 231.188 154.366 231.727 C 158.328 233.245 160.2 228.885 157.475 224.49 C 155.082 220.629 155.066 220.489 157.113 221.139 C 160.014 222.058 158.61 218.088 153.244 210.189 C 148.011 202.487 134.296 195.087 126.877 195.963 C 122.425 196.488 122.318 196.438 124.014 194.561 C 134.926 182.505 201.138 168.862 227.067 173.328 C 238.777 175.346 271.036 182.635 280.873 185.486 C 293.045 189.017 299.214 188.958 288.954 185.412 C 284.912 184.015 280.661 182.43 279.506 181.888 C 278.351 181.349 275.674 180.375 273.555 179.731 C 269.406 178.463 265.996 175.531 268.619 175.488 C 276.562 175.352 301.859 179.228 300.865 180.427 C 300.021 181.443 300.063 181.81 301.025 181.81 C 301.983 181.81 302.026 182.176 301.194 183.181 C 300.324 184.228 300.806 184.996 303.237 186.432 C 307.061 188.689 306.668 189.656 302.564 188.094 C 298.909 186.706 295.246 187.657 298.094 189.256 C 299.081 189.808 299.654 190.875 299.365 191.623 C 299.026 192.511 301.692 194.289 307.018 196.723 C 311.516 198.779 318.265 201.859 322.019 203.569 C 325.77 205.282 333.962 210.781 340.219 215.789 C 351.695 224.977 356.159 227.752 363.047 229.977 C 365.118 230.646 369.187 233.22 372.089 235.697 C 377.349 240.186 390.298 247.121 395.742 248.364 C 402.41 249.888 405.32 240.547 400.107 234.35 C 397.841 231.658 397.491 230.455 398.07 227.369 C 398.591 224.591 398.036 221.722 395.895 216.11 C 390.404 201.722 387.593 198.668 370.844 188.882 C 367.403 186.87 376.558 186.839 419.874 188.714 C 439.767 189.575 445.968 186.151 439.284 177.992 C 437.928 176.339 435.786 173.273 434.521 171.178 C 422.948 152.016 394.915 145.355 351.749 151.511 C 336.946 153.621 333.873 153.716 308.352 152.837 C 286.449 152.084 260.56 152.352 264.508 153.291 C 264.918 153.388 272.539 154.404 281.441 155.547 C 299.394 157.852 304.188 159.123 302.242 161.068 C 300.907 162.401 301.182 162.434 264.285 156.637 C 234.327 151.928 210.641 145.701 212.325 142.976 C 212.596 142.539 215.069 141.613 217.82 140.922 C 227.833 138.407 229.756 129.42 222.047 121.192 C 217.525 116.363 206.688 121.556 204.971 129.371 C 204.599 131.065 203.858 132.718 203.325 133.051 C 202.792 133.38 202.357 134.801 202.357 136.211 C 202.357 139.635 203.052 139.722 162.994 131.209 C 146.765 127.761 124.861 127.964 109.007 131.709 C 102.408 133.268 96.79 134.326 96.522 134.057 C 95.774 133.309 102.578 118.265 105.391 114.456 C 111.939 105.58 106.256 99.906 90.91 100.001 C 84.948 100.037 79.038 100.484 77.776 100.991 M 78.165 142.702 C 75.286 145.58 74.289 143.623 76.695 139.823 C 78.911 136.32 79.037 136.265 79.372 138.645 C 79.566 140.017 79.023 141.843 78.165 142.702 M 267.347 159.38 C 269.69 161.448 259.203 161.52 255.279 159.463 C 252.355 157.931 252.526 157.89 259.572 158.431 C 263.608 158.74 267.108 159.169 267.347 159.38 M 280.031 169.214 C 282.003 170.488 276.662 170.488 272.684 169.214 C 270.406 168.485 270.616 168.362 274.258 168.283 C 276.567 168.237 279.165 168.653 280.031 169.214 M 230.28 181.966 C 224.259 196.584 224.247 200.189 230.2 203.87 C 247.044 214.28 252.847 196.13 236.934 182.808 L 231.729 178.448 L 230.28 181.966 M 466.125 251.875 C 464.435 253.464 459.508 260.194 455.174 266.833 C 450.84 273.472 444.349 282.591 440.752 287.098 C 431.774 298.351 423.439 311.312 424.875 311.79 C 427.976 312.825 433.488 310.377 440.14 305.011 C 453.445 294.279 463.909 288.388 463.668 291.764 C 463.533 293.657 435.672 312.999 425.817 318.042 C 393.996 334.323 356.681 337.196 307.847 327.126 C 291.233 323.699 287 322.412 294.925 323.198 C 302.707 323.968 305.615 323.022 302.6 320.698 C 300.613 319.169 300.698 319.113 304.174 319.671 C 312.888 321.069 318.307 321.645 317.819 321.123 C 316.338 319.537 298.048 312.804 291.455 311.418 C 280.768 309.17 266.151 304.111 261.068 300.903 L 256.754 298.179 L 261.434 295.21 C 270.65 289.367 272.168 282.903 265.814 276.548 L 262.092 272.826 L 253.878 273.461 C 239.135 274.598 231.161 276.972 226.18 281.711 C 221.908 285.774 221.703 285.848 219.154 284.216 C 193.082 267.522 180.719 265.521 153.544 273.599 C 133.803 279.467 131.909 292.043 147.283 315.171 C 156.145 328.498 165.57 334.788 184.67 340.116 C 205.078 345.81 209.139 349.147 219.58 368.801 C 229.406 387.299 234.494 392.779 241.841 392.789 C 256.083 392.804 256.347 367.921 242.205 358.349 L 238.57 355.891 L 246.443 356.759 C 270.585 359.428 315.942 356.884 345.636 351.198 C 368.954 346.731 416.696 334.123 422.943 330.779 C 423.991 330.218 428.755 329.282 433.528 328.701 C 463.904 325.002 494.91 303.636 499.468 283.264 C 502.164 271.223 494.402 269.862 481.043 280.029 L 477.894 282.428 L 477.894 268.07 C 477.894 248.688 474.493 244.007 466.125 251.875 M 364.516 319.439 C 362.273 320.528 357.707 326.562 357.707 328.434 C 357.707 330.748 371.829 331.804 375.621 329.778 C 382.495 326.096 371.628 315.976 364.516 319.439 M 327.792 323.989 C 332.622 325.674 338.236 326.133 335.665 324.633 C 334.797 324.128 331.729 323.447 328.84 323.121 L 323.593 322.525 L 327.792 323.989 M 237.519 347.71 L 244.87 349.69 L 236.967 349.299 C 232.623 349.081 227.426 348.191 225.421 347.318 L 221.774 345.729 L 225.975 345.729 C 228.283 345.729 233.478 346.62 237.519 347.71 M 362.693 351.559 C 358.459 352.2 359.012 353.132 367.417 359.507 C 387.674 374.874 396.676 373.492 391.67 355.782 C 390.45 351.466 376.614 349.45 362.693 351.559" stroke="none" fill="#000000" fill-rule="evenodd" style=""/>
</svg>