<?xml version="1.0" encoding="utf-8"?>
<svg xmlns="http://www.w3.org/2000/svg" viewBox="0 0 500 500" xmlns:bx="https://boxy-svg.com">
  <defs>
    <bx:grid x="0" y="0" width="20.797" height="20.797"/>
    <bx:export>
      <bx:file format="svg" href="#object-0" excluded="true"/>
      <bx:file format="svg" href="#path0" path="Untitled 2.svg" excluded="true"/>
      <bx:file format="svg" href="#object-1" path="Untitled 3.svg"/>
    </bx:export>
  </defs>
  <g id="object-1">
    <ellipse style="fill: rgb(216, 216, 216); stroke: rgb(0, 0, 0);"/>
    <ellipse style="stroke: rgb(0, 0, 0); fill: rgb(255, 255, 255); stroke-width: 15px;" cx="249.564" cy="249.564" rx="228.767" ry="228.767" id="object-0"/>
    <path id="path0" d="M 106.293 128.673 C 102.48 130.209 101.279 137.088 103.778 143.075 C 104.923 145.813 104.847 146.772 102.933 153.928 C 99.604 166.37 98.934 167.511 92.749 171.376 C 48.083 199.284 29.791 231.313 49.439 247.208 C 59.68 255.492 67.66 253.772 92.891 237.837 C 98.266 234.444 104.695 230.639 107.178 229.392 C 109.661 228.138 114.36 225.397 117.617 223.296 C 125.916 217.947 128.538 218.373 139.643 226.878 C 148.807 233.896 157.318 237.745 166.66 239.097 C 170.571 239.663 170.87 239.589 169.811 238.314 C 168.812 237.112 168.842 236.981 170.007 237.429 C 173.304 238.694 174.861 235.064 172.593 231.408 C 170.604 228.198 170.59 228.082 172.293 228.623 C 174.706 229.385 173.537 226.085 169.072 219.512 C 164.722 213.106 153.31 206.948 147.141 207.678 C 143.437 208.116 143.348 208.074 144.757 206.51 C 153.834 196.483 208.917 185.133 230.485 188.849 C 240.226 190.527 267.065 196.591 275.245 198.963 C 285.372 201.9 290.504 201.851 281.968 198.901 C 278.606 197.738 275.07 196.42 274.11 195.97 C 273.146 195.521 270.922 194.711 269.158 194.176 C 265.706 193.119 262.87 190.682 265.051 190.645 C 271.659 190.531 292.705 193.757 291.878 194.755 C 291.176 195.599 291.209 195.905 292.01 195.905 C 292.806 195.905 292.845 196.209 292.151 197.045 C 291.426 197.916 291.826 198.556 293.849 199.751 C 297.03 201.629 296.705 202.432 293.288 201.133 C 290.249 199.977 287.204 200.771 289.571 202.1 C 290.394 202.558 290.87 203.446 290.629 204.066 C 290.346 204.806 292.565 206.285 296.996 208.309 C 300.737 210.02 306.353 212.582 309.474 214.006 C 312.594 215.43 319.408 220.004 324.616 224.172 C 334.163 231.815 337.876 234.123 343.605 235.973 C 345.327 236.529 348.712 238.672 351.126 240.73 C 355.504 244.466 366.274 250.236 370.805 251.269 C 376.349 252.537 378.77 244.767 374.434 239.612 C 372.548 237.371 372.259 236.371 372.741 233.804 C 373.175 231.491 372.711 229.105 370.931 224.438 C 366.364 212.47 364.025 209.927 350.09 201.787 C 347.229 200.114 354.845 200.088 390.878 201.648 C 407.426 202.362 412.585 199.517 407.026 192.73 C 405.897 191.353 404.115 188.802 403.063 187.059 C 393.436 171.12 370.116 165.578 334.205 170.699 C 321.892 172.455 319.334 172.536 298.106 171.802 C 279.884 171.177 258.347 171.398 261.632 172.181 C 261.973 172.261 268.313 173.106 275.718 174.058 C 290.652 175.975 294.642 177.03 293.023 178.649 C 291.911 179.76 292.142 179.786 261.446 174.963 C 236.525 171.046 216.822 165.867 218.222 163.599 C 218.448 163.238 220.504 162.466 222.793 161.888 C 231.125 159.799 232.722 152.322 226.308 145.478 C 222.547 141.459 213.533 145.779 212.105 152.28 C 211.797 153.69 211.178 155.066 210.735 155.344 C 210.291 155.617 209.93 156.798 209.93 157.971 C 209.93 160.819 210.508 160.893 177.185 153.811 C 163.684 150.94 145.464 151.11 132.273 154.226 C 126.784 155.521 122.109 156.404 121.888 156.18 C 121.265 155.558 126.925 143.043 129.266 139.873 C 134.713 132.489 129.985 127.77 117.22 127.849 C 112.26 127.878 107.344 128.253 106.293 128.673 M 106.617 163.373 C 104.222 165.765 103.391 164.137 105.394 160.975 C 107.239 158.065 107.344 158.015 107.621 159.997 C 107.783 161.138 107.33 162.657 106.617 163.373 M 263.992 177.245 C 265.944 178.965 257.219 179.024 253.954 177.317 C 251.524 176.041 251.665 176.006 257.525 176.458 C 260.885 176.713 263.795 177.069 263.992 177.245 M 274.547 185.426 C 276.186 186.484 271.743 186.484 268.434 185.426 C 266.539 184.819 266.712 184.718 269.745 184.651 C 271.664 184.613 273.826 184.958 274.547 185.426 M 233.158 196.035 C 228.15 208.194 228.141 211.193 233.091 214.257 C 247.105 222.918 251.93 207.818 238.692 196.733 L 234.366 193.108 L 233.158 196.035 M 429.354 254.189 C 427.947 255.513 423.849 261.111 420.245 266.633 C 416.639 272.157 411.238 279.742 408.246 283.491 C 400.777 292.853 393.844 303.635 395.04 304.034 C 397.619 304.894 402.203 302.857 407.737 298.393 C 418.806 289.465 427.511 284.565 427.307 287.373 C 427.197 288.949 404.019 305.037 395.823 309.233 C 369.35 322.778 338.311 325.167 297.686 316.789 C 283.865 313.939 280.344 312.867 286.936 313.522 C 293.409 314.164 295.828 313.377 293.32 311.441 C 291.666 310.172 291.739 310.124 294.629 310.588 C 301.879 311.752 306.385 312.23 305.982 311.795 C 304.746 310.477 289.534 304.875 284.047 303.723 C 275.159 301.854 262.999 297.644 258.771 294.976 L 255.182 292.709 L 259.077 290.239 C 266.744 285.38 268.006 280.002 262.719 274.715 L 259.622 271.619 L 252.788 272.147 C 240.525 273.094 233.891 275.067 229.747 279.012 C 226.193 282.392 226.025 282.45 223.903 281.093 C 202.215 267.207 191.93 265.543 169.324 272.262 C 152.902 277.144 151.326 287.605 164.116 306.844 C 171.489 317.933 179.327 323.164 195.217 327.595 C 212.194 332.333 215.572 335.109 224.256 351.459 C 232.432 366.844 236.665 371.405 242.776 371.414 C 254.624 371.427 254.844 350.727 243.079 342.762 L 240.055 340.719 L 246.605 341.44 C 266.689 343.662 304.419 341.545 329.121 336.814 C 348.519 333.1 388.235 322.611 393.431 319.83 C 394.304 319.363 398.267 318.584 402.237 318.099 C 427.506 315.021 453.3 297.251 457.091 280.301 C 459.334 270.285 452.878 269.154 441.763 277.612 L 439.144 279.608 L 439.144 267.663 C 439.144 251.539 436.313 247.645 429.354 254.189 M 344.827 310.396 C 342.961 311.302 339.164 316.32 339.164 317.879 C 339.164 319.803 350.91 320.681 354.065 318.997 C 359.784 315.932 350.744 307.514 344.827 310.396 M 314.276 314.181 C 318.295 315.584 322.965 315.964 320.826 314.716 C 320.104 314.297 317.552 313.73 315.148 313.459 L 310.785 312.963 L 314.276 314.181 M 239.181 333.914 L 245.295 335.559 L 238.723 335.235 C 235.107 335.055 230.785 334.312 229.116 333.588 L 226.084 332.265 L 229.579 332.265 C 231.498 332.265 235.819 333.007 239.181 333.914 M 343.311 337.115 C 339.788 337.648 340.247 338.424 347.24 343.728 C 364.092 356.51 371.581 355.36 367.416 340.627 C 366.401 337.038 354.892 335.36 343.311 337.115" stroke="none" fill="#000000" fill-rule="evenodd" style=""/>
  </g>
</svg>